ply
format ascii 1.0
comment PCL generated
element vertex 9
property float x
property float y
property float z
element camera 1
property float view_px
property float view_py
property float view_pz
property float x_axisx
property float x_axisy
property float x_axisz
property float y_axisx
property float y_axisy
property float y_axisz
property float z_axisx
property float z_axisy
property float z_axisz
property float focal
property float scalex
property float scaley
property float centerx
property float centery
property int viewportx
property int viewporty
property float k1
property float k2
end_header
-54.404339 -3.242871 -49.782776
-1.4385124 16.220631 28.736145
7.2909498 -0.28275001 41.252499
-9.8204346 15.859227 49.429874
44.896355 19.224512 23.897264
-30.237228 -44.964916 30.875063
-38.449009 12.727179 -49.965656
-38.542866 12.53776 48.485161
-9.0284357 12.606961 42.36816
0 0 0 1 0 0 0 1 0 0 0 1 0 0 0 0 0 9 1 0 0
