ply
format ascii 1.0
comment PCL generated
element vertex 9
property float x
property float y
property float z
element camera 1
property float view_px
property float view_py
property float view_pz
property float x_axisx
property float x_axisy
property float x_axisz
property float y_axisx
property float y_axisy
property float y_axisz
property float z_axisx
property float z_axisy
property float z_axisz
property float focal
property float scalex
property float scaley
property float centerx
property float centery
property int viewportx
property int viewporty
property float k1
property float k2
end_header
-69.902107 -5.3180437 -8.2462511
40.227169 26.051168 103.65134
63.845963 -10.521423 -106.39057
63.894257 10.180759 -105.99877
-38.484795 28.026281 -105.04056
-104.01623 -6.1706133 -20.072594
75.966248 9.9313374 -104.7935
103.69508 9.5068111 -75.976868
61.590374 4.8729811 106.12097
0 0 0 1 0 0 0 1 0 0 0 1 0 0 0 0 0 9 1 0 0
