ply
format ascii 1.0
comment PCL generated
element vertex 7
property float x
property float y
property float z
element camera 1
property float view_px
property float view_py
property float view_pz
property float x_axisx
property float x_axisy
property float x_axisz
property float y_axisx
property float y_axisy
property float y_axisz
property float z_axisx
property float z_axisy
property float z_axisz
property float focal
property float scalex
property float scaley
property float centerx
property float centery
property int viewportx
property int viewporty
property float k1
property float k2
end_header
-47.447273 3.306607 -3.7601235
-45.1726 -0.403 0.3105
6.3335104 -6.4272547 -41.934052
-6.4672771 6.5661988 -41.850174
6.3579979 6.3807726 -42.043907
12.830205 12.770076 -42.065662
-9.5339994 -7.2333479 35.220745
0 0 0 1 0 0 0 1 0 0 0 1 0 0 0 0 0 7 1 0 0
