ply
format ascii 1.0
comment PCL generated
element vertex 17
property float x
property float y
property float z
element camera 1
property float view_px
property float view_py
property float view_pz
property float x_axisx
property float x_axisy
property float x_axisz
property float y_axisx
property float y_axisy
property float y_axisz
property float z_axisx
property float z_axisy
property float z_axisz
property float focal
property float scalex
property float scaley
property float centerx
property float centery
property int viewportx
property int viewporty
property float k1
property float k2
end_header
-4.4099751 75.373138 36.363663
-60.622528 -48.078693 35.120407
74.974518 -3.3798666 34.318394
-63.009079 36.704647 34.247593
49.219624 54.979527 34.272453
37.066235 63.155533 33.561516
-2.7849188 74.103294 35.094498
3.8235002 74.18792 34.751717
77.314209 -28.115246 31.631992
-16.849865 16.634972 -34.695129
12.625966 -80.040848 31.587278
12.625966 -80.040848 31.587278
80.204735 -12.338108 31.81522
-80.411957 12.450697 31.351892
80.677612 12.266711 31.565109
-12.590208 80.017776 31.586056
12.57299 79.734558 31.569096
0 0 0 1 0 0 0 1 0 0 0 1 0 0 0 0 0 17 1 0 0
